<mxfile host="Electron" modified="2023-09-29T07:57:37.361Z" agent="Mozilla/5.0 (Windows NT 10.0; Win64; x64) AppleWebKit/537.36 (KHTML, like Gecko) draw.io/21.6.8 Chrome/114.0.5735.289 Electron/25.5.0 Safari/537.36" etag="ekcRxz0L9xolwrx-bAdZ" version="21.6.8" type="device">
  <diagram name="Page-1" id="Z4-X76-_i8K1NC46vteE">
    <mxGraphModel dx="1539" dy="2340" grid="1" gridSize="5" guides="1" tooltips="1" connect="1" arrows="1" fold="1" page="1" pageScale="1" pageWidth="1100" pageHeight="850" background="#f1f3f4" math="0" shadow="1">
      <root>
        <object label="" id="0">
          <mxCell />
        </object>
        <mxCell id="1" parent="0" />
        <object label="Student 1" id="GSfRpf7HkKTyRdPEapyl-1">
          <mxCell style="shape=umlActor;verticalLabelPosition=bottom;verticalAlign=top;html=1;outlineConnect=0;whiteSpace=wrap;" parent="1" vertex="1">
            <mxGeometry x="-90" y="-950" width="40" height="60" as="geometry" />
          </mxCell>
        </object>
        <mxCell id="m34tFxrEt88R47XqFKir-2" value="Sign up" style="ellipse;whiteSpace=wrap;html=1;" parent="1" vertex="1">
          <mxGeometry x="120" y="-1140" width="120" height="70" as="geometry" />
        </mxCell>
        <mxCell id="m34tFxrEt88R47XqFKir-3" value="Sign&amp;nbsp; in" style="ellipse;whiteSpace=wrap;html=1;" parent="1" vertex="1">
          <mxGeometry x="120" y="-1060" width="120" height="70" as="geometry" />
        </mxCell>
        <mxCell id="m34tFxrEt88R47XqFKir-4" value="Search other user" style="ellipse;whiteSpace=wrap;html=1;" parent="1" vertex="1">
          <mxGeometry x="120" y="-980" width="120" height="70" as="geometry" />
        </mxCell>
        <mxCell id="m34tFxrEt88R47XqFKir-5" value="&lt;b&gt;&lt;font style=&quot;font-size: 18px;&quot;&gt;&lt;u&gt;MYGEEKS4U CHAT SYSTEM&lt;/u&gt;&lt;/font&gt;&lt;/b&gt;" style="text;html=1;align=center;verticalAlign=middle;resizable=0;points=[];autosize=1;strokeColor=none;fillColor=none;" parent="1" vertex="1">
          <mxGeometry x="168" y="-1625" width="265" height="40" as="geometry" />
        </mxCell>
        <mxCell id="m34tFxrEt88R47XqFKir-6" value="Send request" style="ellipse;whiteSpace=wrap;html=1;" parent="1" vertex="1">
          <mxGeometry x="120" y="-900" width="120" height="70" as="geometry" />
        </mxCell>
        <mxCell id="m34tFxrEt88R47XqFKir-7" value="Chat" style="ellipse;whiteSpace=wrap;html=1;" parent="1" vertex="1">
          <mxGeometry x="120" y="-820" width="120" height="70" as="geometry" />
        </mxCell>
        <mxCell id="m34tFxrEt88R47XqFKir-8" value="View Conversation" style="ellipse;whiteSpace=wrap;html=1;" parent="1" vertex="1">
          <mxGeometry x="120" y="-740" width="120" height="70" as="geometry" />
        </mxCell>
        <mxCell id="m34tFxrEt88R47XqFKir-9" value="Delete Conversation" style="ellipse;whiteSpace=wrap;html=1;" parent="1" vertex="1">
          <mxGeometry x="125" y="-665" width="120" height="60" as="geometry" />
        </mxCell>
        <mxCell id="m34tFxrEt88R47XqFKir-10" value="" style="endArrow=none;html=1;rounded=0;entryX=0;entryY=0.714;entryDx=0;entryDy=0;entryPerimeter=0;" parent="1" target="m34tFxrEt88R47XqFKir-2" edge="1">
          <mxGeometry width="50" height="50" relative="1" as="geometry">
            <mxPoint x="-20" y="-910" as="sourcePoint" />
            <mxPoint x="30" y="-960" as="targetPoint" />
          </mxGeometry>
        </mxCell>
        <mxCell id="m34tFxrEt88R47XqFKir-11" value="" style="endArrow=none;html=1;rounded=0;" parent="1" target="m34tFxrEt88R47XqFKir-6" edge="1">
          <mxGeometry width="50" height="50" relative="1" as="geometry">
            <mxPoint x="-20" y="-910" as="sourcePoint" />
            <mxPoint x="50" y="-930" as="targetPoint" />
          </mxGeometry>
        </mxCell>
        <mxCell id="m34tFxrEt88R47XqFKir-12" value="" style="endArrow=none;html=1;rounded=0;" parent="1" target="m34tFxrEt88R47XqFKir-4" edge="1">
          <mxGeometry width="50" height="50" relative="1" as="geometry">
            <mxPoint x="-20" y="-910" as="sourcePoint" />
            <mxPoint x="40" y="-950" as="targetPoint" />
          </mxGeometry>
        </mxCell>
        <mxCell id="m34tFxrEt88R47XqFKir-13" value="" style="endArrow=none;html=1;rounded=0;entryX=0;entryY=0.5;entryDx=0;entryDy=0;" parent="1" target="m34tFxrEt88R47XqFKir-3" edge="1">
          <mxGeometry width="50" height="50" relative="1" as="geometry">
            <mxPoint x="-20" y="-910" as="sourcePoint" />
            <mxPoint x="30" y="-960" as="targetPoint" />
          </mxGeometry>
        </mxCell>
        <mxCell id="m34tFxrEt88R47XqFKir-14" value="" style="endArrow=none;html=1;rounded=0;" parent="1" edge="1">
          <mxGeometry width="50" height="50" relative="1" as="geometry">
            <mxPoint x="-20" y="-910" as="sourcePoint" />
            <mxPoint x="-20" y="-910" as="targetPoint" />
            <Array as="points">
              <mxPoint x="130" y="-810" />
            </Array>
          </mxGeometry>
        </mxCell>
        <mxCell id="m34tFxrEt88R47XqFKir-16" value="" style="endArrow=none;html=1;rounded=0;entryX=0;entryY=0.5;entryDx=0;entryDy=0;" parent="1" target="m34tFxrEt88R47XqFKir-8" edge="1">
          <mxGeometry width="50" height="50" relative="1" as="geometry">
            <mxPoint x="-20" y="-910" as="sourcePoint" />
            <mxPoint x="10" y="-850" as="targetPoint" />
          </mxGeometry>
        </mxCell>
        <mxCell id="m34tFxrEt88R47XqFKir-24" value="" style="endArrow=none;html=1;rounded=0;exitX=0.008;exitY=0.4;exitDx=0;exitDy=0;exitPerimeter=0;" parent="1" source="m34tFxrEt88R47XqFKir-9" edge="1">
          <mxGeometry width="50" height="50" relative="1" as="geometry">
            <mxPoint y="-780" as="sourcePoint" />
            <mxPoint x="-20" y="-910" as="targetPoint" />
          </mxGeometry>
        </mxCell>
        <mxCell id="m34tFxrEt88R47XqFKir-28" value="Student 2" style="shape=umlActor;verticalLabelPosition=bottom;verticalAlign=top;html=1;outlineConnect=0;" parent="1" vertex="1">
          <mxGeometry x="630" y="-760" width="30" height="60" as="geometry" />
        </mxCell>
        <mxCell id="m34tFxrEt88R47XqFKir-29" value="Ignore" style="ellipse;whiteSpace=wrap;html=1;" parent="1" vertex="1">
          <mxGeometry x="400" y="-940" width="120" height="70" as="geometry" />
        </mxCell>
        <mxCell id="m34tFxrEt88R47XqFKir-30" value="Accept" style="ellipse;whiteSpace=wrap;html=1;" parent="1" vertex="1">
          <mxGeometry x="410" y="-830" width="120" height="70" as="geometry" />
        </mxCell>
        <mxCell id="m34tFxrEt88R47XqFKir-32" value="" style="endArrow=none;dashed=1;html=1;rounded=0;entryX=0.058;entryY=0.267;entryDx=0;entryDy=0;entryPerimeter=0;exitX=1;exitY=0.5;exitDx=0;exitDy=0;" parent="1" source="m34tFxrEt88R47XqFKir-6" target="m34tFxrEt88R47XqFKir-30" edge="1">
          <mxGeometry width="50" height="50" relative="1" as="geometry">
            <mxPoint x="250" y="-790" as="sourcePoint" />
            <mxPoint x="460" y="-870" as="targetPoint" />
          </mxGeometry>
        </mxCell>
        <mxCell id="m34tFxrEt88R47XqFKir-33" value="" style="endArrow=none;dashed=1;html=1;rounded=0;entryX=0;entryY=0.5;entryDx=0;entryDy=0;exitX=1;exitY=0.5;exitDx=0;exitDy=0;" parent="1" source="m34tFxrEt88R47XqFKir-6" target="m34tFxrEt88R47XqFKir-29" edge="1">
          <mxGeometry width="50" height="50" relative="1" as="geometry">
            <mxPoint x="250" y="-870" as="sourcePoint" />
            <mxPoint x="460" y="-870" as="targetPoint" />
          </mxGeometry>
        </mxCell>
        <mxCell id="m34tFxrEt88R47XqFKir-34" value="" style="endArrow=none;html=1;rounded=0;entryX=0.85;entryY=0.957;entryDx=0;entryDy=0;entryPerimeter=0;" parent="1" target="m34tFxrEt88R47XqFKir-29" edge="1">
          <mxGeometry width="50" height="50" relative="1" as="geometry">
            <mxPoint x="630" y="-740" as="sourcePoint" />
            <mxPoint x="460" y="-870" as="targetPoint" />
          </mxGeometry>
        </mxCell>
        <mxCell id="m34tFxrEt88R47XqFKir-35" value="" style="endArrow=none;html=1;rounded=0;" parent="1" source="m34tFxrEt88R47XqFKir-28" target="m34tFxrEt88R47XqFKir-30" edge="1">
          <mxGeometry width="50" height="50" relative="1" as="geometry">
            <mxPoint x="410" y="-820" as="sourcePoint" />
            <mxPoint x="460" y="-870" as="targetPoint" />
          </mxGeometry>
        </mxCell>
        <mxCell id="m34tFxrEt88R47XqFKir-45" value="Admin&lt;br&gt;" style="shape=umlActor;verticalLabelPosition=bottom;verticalAlign=top;html=1;outlineConnect=0;" parent="1" vertex="1">
          <mxGeometry x="630" y="-1110" width="30" height="60" as="geometry" />
        </mxCell>
        <mxCell id="m34tFxrEt88R47XqFKir-46" value="validate user" style="ellipse;whiteSpace=wrap;html=1;" parent="1" vertex="1">
          <mxGeometry x="390" y="-1100" width="120" height="70" as="geometry" />
        </mxCell>
        <mxCell id="m34tFxrEt88R47XqFKir-48" value="" style="endArrow=none;html=1;rounded=0;exitX=1.025;exitY=0.386;exitDx=0;exitDy=0;exitPerimeter=0;" parent="1" source="m34tFxrEt88R47XqFKir-46" edge="1">
          <mxGeometry width="50" height="50" relative="1" as="geometry">
            <mxPoint x="580" y="-1030" as="sourcePoint" />
            <mxPoint x="630" y="-1080" as="targetPoint" />
          </mxGeometry>
        </mxCell>
        <mxCell id="m34tFxrEt88R47XqFKir-49" value="" style="endArrow=none;dashed=1;html=1;rounded=0;exitX=1;exitY=0.5;exitDx=0;exitDy=0;" parent="1" source="m34tFxrEt88R47XqFKir-3" edge="1">
          <mxGeometry width="50" height="50" relative="1" as="geometry">
            <mxPoint x="340" y="-1010" as="sourcePoint" />
            <mxPoint x="390" y="-1060" as="targetPoint" />
          </mxGeometry>
        </mxCell>
        <mxCell id="nk-HW6-lT5jXHNS1FOjJ-2" value="" style="ellipse;whiteSpace=wrap;html=1;aspect=fixed;strokeColor=#001DBC;fillColor=#0a0a0a;fontColor=#ffffff;" parent="1" vertex="1">
          <mxGeometry x="145" y="-405" width="30" height="30" as="geometry" />
        </mxCell>
        <mxCell id="nk-HW6-lT5jXHNS1FOjJ-3" value="Sign in" style="rounded=1;whiteSpace=wrap;html=1;" parent="1" vertex="1">
          <mxGeometry x="120" y="-345" width="90" height="40" as="geometry" />
        </mxCell>
        <mxCell id="nk-HW6-lT5jXHNS1FOjJ-4" value="" style="endArrow=classic;html=1;rounded=0;" parent="1" edge="1">
          <mxGeometry width="50" height="50" relative="1" as="geometry">
            <mxPoint x="160" y="-375" as="sourcePoint" />
            <mxPoint x="160" y="-345" as="targetPoint" />
          </mxGeometry>
        </mxCell>
        <mxCell id="nk-HW6-lT5jXHNS1FOjJ-5" value="Sign in successful?" style="rhombus;whiteSpace=wrap;html=1;" parent="1" vertex="1">
          <mxGeometry x="120" y="-255" width="80" height="95" as="geometry" />
        </mxCell>
        <mxCell id="nk-HW6-lT5jXHNS1FOjJ-6" value="" style="endArrow=classic;html=1;rounded=0;exitX=0.433;exitY=1.089;exitDx=0;exitDy=0;exitPerimeter=0;" parent="1" source="nk-HW6-lT5jXHNS1FOjJ-3" edge="1">
          <mxGeometry width="50" height="50" relative="1" as="geometry">
            <mxPoint x="135" y="-305" as="sourcePoint" />
            <mxPoint x="159" y="-255" as="targetPoint" />
          </mxGeometry>
        </mxCell>
        <mxCell id="nk-HW6-lT5jXHNS1FOjJ-7" value="" style="endArrow=none;html=1;rounded=0;exitX=0;exitY=0.5;exitDx=0;exitDy=0;" parent="1" source="nk-HW6-lT5jXHNS1FOjJ-5" edge="1">
          <mxGeometry width="50" height="50" relative="1" as="geometry">
            <mxPoint x="165" y="-120" as="sourcePoint" />
            <mxPoint x="55" y="-207" as="targetPoint" />
          </mxGeometry>
        </mxCell>
        <mxCell id="nk-HW6-lT5jXHNS1FOjJ-8" value="No" style="text;html=1;align=center;verticalAlign=middle;resizable=0;points=[];autosize=1;strokeColor=none;fillColor=none;" parent="1" vertex="1">
          <mxGeometry x="73" y="-232" width="35" height="30" as="geometry" />
        </mxCell>
        <mxCell id="nk-HW6-lT5jXHNS1FOjJ-9" value="Signup" style="rounded=1;whiteSpace=wrap;html=1;" parent="1" vertex="1">
          <mxGeometry x="-50" y="-230" width="105" height="45" as="geometry" />
        </mxCell>
        <mxCell id="nk-HW6-lT5jXHNS1FOjJ-10" value="" style="endArrow=none;html=1;rounded=0;" parent="1" edge="1">
          <mxGeometry width="50" height="50" relative="1" as="geometry">
            <mxPoint x="-1" y="-230" as="sourcePoint" />
            <mxPoint x="-1" y="-323" as="targetPoint" />
          </mxGeometry>
        </mxCell>
        <mxCell id="nk-HW6-lT5jXHNS1FOjJ-11" value="" style="endArrow=classic;html=1;rounded=0;" parent="1" edge="1">
          <mxGeometry width="50" height="50" relative="1" as="geometry">
            <mxPoint y="-322" as="sourcePoint" />
            <mxPoint x="120" y="-320" as="targetPoint" />
          </mxGeometry>
        </mxCell>
        <mxCell id="nk-HW6-lT5jXHNS1FOjJ-15" value="" style="endArrow=classic;html=1;rounded=0;" parent="1" source="nk-HW6-lT5jXHNS1FOjJ-5" edge="1">
          <mxGeometry width="50" height="50" relative="1" as="geometry">
            <mxPoint x="160" y="-155" as="sourcePoint" />
            <mxPoint x="160" y="-100" as="targetPoint" />
          </mxGeometry>
        </mxCell>
        <mxCell id="nk-HW6-lT5jXHNS1FOjJ-16" value="Search other user" style="rounded=1;whiteSpace=wrap;html=1;" parent="1" vertex="1">
          <mxGeometry x="103" y="-100" width="107" height="45" as="geometry" />
        </mxCell>
        <mxCell id="nk-HW6-lT5jXHNS1FOjJ-17" value="send request" style="rounded=1;whiteSpace=wrap;html=1;" parent="1" vertex="1">
          <mxGeometry x="360" y="-100" width="120" height="45" as="geometry" />
        </mxCell>
        <mxCell id="nk-HW6-lT5jXHNS1FOjJ-18" value="" style="endArrow=classic;html=1;rounded=0;exitX=1;exitY=0.5;exitDx=0;exitDy=0;entryX=0;entryY=0.5;entryDx=0;entryDy=0;" parent="1" source="nk-HW6-lT5jXHNS1FOjJ-16" target="nk-HW6-lT5jXHNS1FOjJ-17" edge="1">
          <mxGeometry width="50" height="50" relative="1" as="geometry">
            <mxPoint x="215" y="-65" as="sourcePoint" />
            <mxPoint x="265" y="-115" as="targetPoint" />
          </mxGeometry>
        </mxCell>
        <mxCell id="nk-HW6-lT5jXHNS1FOjJ-19" value="Accepted?" style="rhombus;whiteSpace=wrap;html=1;" parent="1" vertex="1">
          <mxGeometry x="380" y="-5" width="80" height="80" as="geometry" />
        </mxCell>
        <mxCell id="nk-HW6-lT5jXHNS1FOjJ-20" value="" style="endArrow=classic;html=1;rounded=0;" parent="1" edge="1">
          <mxGeometry width="50" height="50" relative="1" as="geometry">
            <mxPoint x="419.5" y="-52.5" as="sourcePoint" />
            <mxPoint x="419.5" y="-5" as="targetPoint" />
          </mxGeometry>
        </mxCell>
        <mxCell id="nk-HW6-lT5jXHNS1FOjJ-22" value="Chat&lt;br&gt;" style="rounded=1;whiteSpace=wrap;html=1;" parent="1" vertex="1">
          <mxGeometry x="370" y="120" width="105" height="45" as="geometry" />
        </mxCell>
        <mxCell id="nk-HW6-lT5jXHNS1FOjJ-23" value="" style="endArrow=classic;html=1;rounded=0;" parent="1" edge="1">
          <mxGeometry width="50" height="50" relative="1" as="geometry">
            <mxPoint x="421.48" y="80" as="sourcePoint" />
            <mxPoint x="421" y="120" as="targetPoint" />
          </mxGeometry>
        </mxCell>
        <mxCell id="nk-HW6-lT5jXHNS1FOjJ-24" value="Yes" style="text;html=1;align=center;verticalAlign=middle;resizable=0;points=[];autosize=1;strokeColor=none;fillColor=none;" parent="1" vertex="1">
          <mxGeometry x="411" y="78" width="40" height="30" as="geometry" />
        </mxCell>
        <mxCell id="nk-HW6-lT5jXHNS1FOjJ-26" value="" style="endArrow=classic;html=1;rounded=0;exitX=0;exitY=0.5;exitDx=0;exitDy=0;" parent="1" source="nk-HW6-lT5jXHNS1FOjJ-19" edge="1">
          <mxGeometry width="50" height="50" relative="1" as="geometry">
            <mxPoint x="343.5" y="137" as="sourcePoint" />
            <mxPoint x="160" y="-50" as="targetPoint" />
            <Array as="points">
              <mxPoint x="160" y="35" />
            </Array>
          </mxGeometry>
        </mxCell>
        <mxCell id="nk-HW6-lT5jXHNS1FOjJ-32" value="No" style="text;html=1;align=center;verticalAlign=middle;resizable=0;points=[];autosize=1;strokeColor=none;fillColor=none;" parent="1" vertex="1">
          <mxGeometry x="225" y="15" width="35" height="30" as="geometry" />
        </mxCell>
        <mxCell id="nk-HW6-lT5jXHNS1FOjJ-33" value="" style="endArrow=none;dashed=1;html=1;dashPattern=1 3;strokeWidth=2;rounded=0;" parent="1" edge="1">
          <mxGeometry width="50" height="50" relative="1" as="geometry">
            <mxPoint x="-445" y="-475" as="sourcePoint" />
            <mxPoint x="851" y="-475" as="targetPoint" />
          </mxGeometry>
        </mxCell>
        <mxCell id="nk-HW6-lT5jXHNS1FOjJ-34" value="&lt;i&gt;Usecase&lt;/i&gt;" style="text;html=1;align=left;verticalAlign=middle;resizable=0;points=[];autosize=1;strokeColor=none;fillColor=none;" parent="1" vertex="1">
          <mxGeometry x="255" y="-500" width="70" height="30" as="geometry" />
        </mxCell>
        <mxCell id="nk-HW6-lT5jXHNS1FOjJ-35" value="View Conversation" style="rounded=1;whiteSpace=wrap;html=1;" parent="1" vertex="1">
          <mxGeometry x="620" y="120" width="120" height="45" as="geometry" />
        </mxCell>
        <mxCell id="nk-HW6-lT5jXHNS1FOjJ-36" value="Delete Conversation" style="rounded=1;whiteSpace=wrap;html=1;" parent="1" vertex="1">
          <mxGeometry x="615" y="390" width="120" height="50" as="geometry" />
        </mxCell>
        <mxCell id="nk-HW6-lT5jXHNS1FOjJ-37" value="do you want to delete?" style="rhombus;whiteSpace=wrap;html=1;" parent="1" vertex="1">
          <mxGeometry x="640" y="210" width="80" height="80" as="geometry" />
        </mxCell>
        <mxCell id="nk-HW6-lT5jXHNS1FOjJ-38" value="" style="endArrow=classic;html=1;rounded=0;entryX=0;entryY=0.5;entryDx=0;entryDy=0;exitX=1;exitY=0.5;exitDx=0;exitDy=0;" parent="1" source="nk-HW6-lT5jXHNS1FOjJ-22" target="nk-HW6-lT5jXHNS1FOjJ-35" edge="1">
          <mxGeometry width="50" height="50" relative="1" as="geometry">
            <mxPoint x="415" y="180" as="sourcePoint" />
            <mxPoint x="465" y="130" as="targetPoint" />
          </mxGeometry>
        </mxCell>
        <mxCell id="nk-HW6-lT5jXHNS1FOjJ-39" value="" style="endArrow=classic;html=1;rounded=0;" parent="1" edge="1">
          <mxGeometry width="50" height="50" relative="1" as="geometry">
            <mxPoint x="679.5" y="165" as="sourcePoint" />
            <mxPoint x="679.5" y="205" as="targetPoint" />
          </mxGeometry>
        </mxCell>
        <mxCell id="nk-HW6-lT5jXHNS1FOjJ-40" value="" style="endArrow=classic;html=1;rounded=0;exitX=0.5;exitY=1;exitDx=0;exitDy=0;entryX=0.558;entryY=-0.04;entryDx=0;entryDy=0;entryPerimeter=0;" parent="1" source="nk-HW6-lT5jXHNS1FOjJ-37" target="nk-HW6-lT5jXHNS1FOjJ-36" edge="1">
          <mxGeometry width="50" height="50" relative="1" as="geometry">
            <mxPoint x="420" y="405" as="sourcePoint" />
            <mxPoint x="425" y="430" as="targetPoint" />
          </mxGeometry>
        </mxCell>
        <mxCell id="nk-HW6-lT5jXHNS1FOjJ-41" value="Yes" style="text;html=1;align=center;verticalAlign=middle;resizable=0;points=[];autosize=1;strokeColor=none;fillColor=none;" parent="1" vertex="1">
          <mxGeometry x="675" y="320" width="40" height="30" as="geometry" />
        </mxCell>
        <mxCell id="nk-HW6-lT5jXHNS1FOjJ-42" value="" style="endArrow=classic;html=1;rounded=0;entryX=0.333;entryY=1;entryDx=0;entryDy=0;entryPerimeter=0;" parent="1" target="nk-HW6-lT5jXHNS1FOjJ-22" edge="1">
          <mxGeometry width="50" height="50" relative="1" as="geometry">
            <mxPoint x="610" y="415" as="sourcePoint" />
            <mxPoint x="530" y="310" as="targetPoint" />
            <Array as="points">
              <mxPoint x="400" y="415" />
            </Array>
          </mxGeometry>
        </mxCell>
        <mxCell id="nk-HW6-lT5jXHNS1FOjJ-43" value="Log out" style="rounded=1;whiteSpace=wrap;html=1;" parent="1" vertex="1">
          <mxGeometry x="610" y="510" width="120" height="40" as="geometry" />
        </mxCell>
        <mxCell id="nk-HW6-lT5jXHNS1FOjJ-44" value="" style="endArrow=classic;html=1;rounded=0;entryX=0.583;entryY=0;entryDx=0;entryDy=0;entryPerimeter=0;" parent="1" target="nk-HW6-lT5jXHNS1FOjJ-43" edge="1">
          <mxGeometry width="50" height="50" relative="1" as="geometry">
            <mxPoint x="680" y="445" as="sourcePoint" />
            <mxPoint x="695" y="415" as="targetPoint" />
          </mxGeometry>
        </mxCell>
        <mxCell id="nk-HW6-lT5jXHNS1FOjJ-45" value="" style="endArrow=none;dashed=1;html=1;dashPattern=1 3;strokeWidth=2;rounded=0;" parent="1" edge="1">
          <mxGeometry width="50" height="50" relative="1" as="geometry">
            <mxPoint x="-460" y="660" as="sourcePoint" />
            <mxPoint x="1000" y="660" as="targetPoint" />
          </mxGeometry>
        </mxCell>
        <mxCell id="nk-HW6-lT5jXHNS1FOjJ-46" value="Activty Diagram" style="text;html=1;align=center;verticalAlign=middle;resizable=0;points=[];autosize=1;strokeColor=none;fillColor=none;" parent="1" vertex="1">
          <mxGeometry x="215" y="625" width="105" height="30" as="geometry" />
        </mxCell>
        <mxCell id="nk-HW6-lT5jXHNS1FOjJ-47" value="log out" style="ellipse;whiteSpace=wrap;html=1;" parent="1" vertex="1">
          <mxGeometry x="115" y="-584" width="120" height="55" as="geometry" />
        </mxCell>
        <mxCell id="nk-HW6-lT5jXHNS1FOjJ-50" value="" style="endArrow=none;html=1;rounded=0;exitX=0.017;exitY=0.327;exitDx=0;exitDy=0;exitPerimeter=0;" parent="1" source="nk-HW6-lT5jXHNS1FOjJ-47" edge="1">
          <mxGeometry width="50" height="50" relative="1" as="geometry">
            <mxPoint x="105" y="-565" as="sourcePoint" />
            <mxPoint x="-17" y="-910" as="targetPoint" />
          </mxGeometry>
        </mxCell>
        <mxCell id="jf0z8NG1vs1mf_S_j24v-9" value="User" style="swimlane;fontStyle=0;childLayout=stackLayout;horizontal=1;startSize=30;horizontalStack=0;resizeParent=1;resizeParentMax=0;resizeLast=0;collapsible=1;marginBottom=0;whiteSpace=wrap;html=1;" parent="1" vertex="1">
          <mxGeometry x="-135" y="760" width="160" height="310" as="geometry" />
        </mxCell>
        <mxCell id="Trp3Tn5dPviKlCJHLu38-11" value="+UserId:Interger" style="text;strokeColor=none;fillColor=none;align=left;verticalAlign=middle;spacingLeft=4;spacingRight=4;overflow=hidden;points=[[0,0.5],[1,0.5]];portConstraint=eastwest;rotatable=0;whiteSpace=wrap;html=1;" parent="jf0z8NG1vs1mf_S_j24v-9" vertex="1">
          <mxGeometry y="30" width="160" height="30" as="geometry" />
        </mxCell>
        <mxCell id="p6NRK59MVq9YujgwilfF-1" value="+UserName: String" style="text;strokeColor=none;fillColor=none;align=left;verticalAlign=middle;spacingLeft=4;spacingRight=4;overflow=hidden;points=[[0,0.5],[1,0.5]];portConstraint=eastwest;rotatable=0;whiteSpace=wrap;html=1;" vertex="1" parent="jf0z8NG1vs1mf_S_j24v-9">
          <mxGeometry y="60" width="160" height="30" as="geometry" />
        </mxCell>
        <mxCell id="Trp3Tn5dPviKlCJHLu38-4" value="+FirstName: String" style="text;strokeColor=none;fillColor=none;align=left;verticalAlign=middle;spacingLeft=4;spacingRight=4;overflow=hidden;points=[[0,0.5],[1,0.5]];portConstraint=eastwest;rotatable=0;whiteSpace=wrap;html=1;" parent="jf0z8NG1vs1mf_S_j24v-9" vertex="1">
          <mxGeometry y="90" width="160" height="30" as="geometry" />
        </mxCell>
        <mxCell id="jf0z8NG1vs1mf_S_j24v-10" value="+LastName: String" style="text;strokeColor=none;fillColor=none;align=left;verticalAlign=middle;spacingLeft=4;spacingRight=4;overflow=hidden;points=[[0,0.5],[1,0.5]];portConstraint=eastwest;rotatable=0;whiteSpace=wrap;html=1;" parent="jf0z8NG1vs1mf_S_j24v-9" vertex="1">
          <mxGeometry y="120" width="160" height="30" as="geometry" />
        </mxCell>
        <mxCell id="jf0z8NG1vs1mf_S_j24v-12" value="+Email: String" style="text;strokeColor=none;fillColor=none;align=left;verticalAlign=middle;spacingLeft=4;spacingRight=4;overflow=hidden;points=[[0,0.5],[1,0.5]];portConstraint=eastwest;rotatable=0;whiteSpace=wrap;html=1;" parent="jf0z8NG1vs1mf_S_j24v-9" vertex="1">
          <mxGeometry y="150" width="160" height="30" as="geometry" />
        </mxCell>
        <mxCell id="Trp3Tn5dPviKlCJHLu38-5" value="+Password:String" style="text;strokeColor=none;fillColor=none;align=left;verticalAlign=middle;spacingLeft=4;spacingRight=4;overflow=hidden;points=[[0,0.5],[1,0.5]];portConstraint=eastwest;rotatable=0;whiteSpace=wrap;html=1;" parent="jf0z8NG1vs1mf_S_j24v-9" vertex="1">
          <mxGeometry y="180" width="160" height="40" as="geometry" />
        </mxCell>
        <mxCell id="jf0z8NG1vs1mf_S_j24v-37" value="" style="endArrow=none;html=1;rounded=0;entryX=-0.012;entryY=0;entryDx=0;entryDy=0;entryPerimeter=0;exitX=1.006;exitY=-0.033;exitDx=0;exitDy=0;exitPerimeter=0;" parent="jf0z8NG1vs1mf_S_j24v-9" source="jf0z8NG1vs1mf_S_j24v-32" target="jf0z8NG1vs1mf_S_j24v-32" edge="1">
          <mxGeometry width="50" height="50" relative="1" as="geometry">
            <mxPoint x="200" y="247.5" as="sourcePoint" />
            <mxPoint x="235" y="317.5" as="targetPoint" />
          </mxGeometry>
        </mxCell>
        <mxCell id="jf0z8NG1vs1mf_S_j24v-32" value="-Signup()" style="text;strokeColor=none;fillColor=none;align=left;verticalAlign=middle;spacingLeft=4;spacingRight=4;overflow=hidden;points=[[0,0.5],[1,0.5]];portConstraint=eastwest;rotatable=1;whiteSpace=wrap;html=1;movable=1;resizable=1;deletable=1;editable=1;locked=0;connectable=1;" parent="jf0z8NG1vs1mf_S_j24v-9" vertex="1">
          <mxGeometry y="220" width="160" height="30" as="geometry" />
        </mxCell>
        <mxCell id="Trp3Tn5dPviKlCJHLu38-10" value="-Login()" style="text;strokeColor=none;fillColor=none;align=left;verticalAlign=middle;spacingLeft=4;spacingRight=4;overflow=hidden;points=[[0,0.5],[1,0.5]];portConstraint=eastwest;rotatable=1;whiteSpace=wrap;html=1;movable=1;resizable=1;deletable=1;editable=1;locked=0;connectable=1;" parent="jf0z8NG1vs1mf_S_j24v-9" vertex="1">
          <mxGeometry y="250" width="160" height="30" as="geometry" />
        </mxCell>
        <mxCell id="jf0z8NG1vs1mf_S_j24v-38" value="-Logout()" style="text;strokeColor=none;fillColor=none;align=left;verticalAlign=middle;spacingLeft=4;spacingRight=4;overflow=hidden;points=[[0,0.5],[1,0.5]];portConstraint=eastwest;rotatable=1;whiteSpace=wrap;html=1;movable=1;resizable=1;deletable=1;editable=1;locked=0;connectable=1;" parent="jf0z8NG1vs1mf_S_j24v-9" vertex="1">
          <mxGeometry y="280" width="160" height="30" as="geometry" />
        </mxCell>
        <mxCell id="jf0z8NG1vs1mf_S_j24v-13" value="Message" style="swimlane;fontStyle=0;childLayout=stackLayout;horizontal=1;startSize=30;horizontalStack=0;resizeParent=1;resizeParentMax=0;resizeLast=0;collapsible=1;marginBottom=0;whiteSpace=wrap;html=1;" parent="1" vertex="1">
          <mxGeometry x="271" y="820" width="180" height="300" as="geometry">
            <mxRectangle x="130" y="725" width="55" height="30" as="alternateBounds" />
          </mxGeometry>
        </mxCell>
        <mxCell id="Trp3Tn5dPviKlCJHLu38-33" value="+ToID:User" style="text;strokeColor=none;fillColor=none;align=left;verticalAlign=middle;spacingLeft=4;spacingRight=4;overflow=hidden;points=[[0,0.5],[1,0.5]];portConstraint=eastwest;rotatable=0;whiteSpace=wrap;html=1;" parent="jf0z8NG1vs1mf_S_j24v-13" vertex="1">
          <mxGeometry y="30" width="180" height="30" as="geometry" />
        </mxCell>
        <mxCell id="Trp3Tn5dPviKlCJHLu38-34" value="+FromID:User" style="text;strokeColor=none;fillColor=none;align=left;verticalAlign=middle;spacingLeft=4;spacingRight=4;overflow=hidden;points=[[0,0.5],[1,0.5]];portConstraint=eastwest;rotatable=0;whiteSpace=wrap;html=1;" parent="jf0z8NG1vs1mf_S_j24v-13" vertex="1">
          <mxGeometry y="60" width="180" height="30" as="geometry" />
        </mxCell>
        <mxCell id="jf0z8NG1vs1mf_S_j24v-17" value="+From:User" style="text;strokeColor=none;fillColor=none;align=left;verticalAlign=middle;spacingLeft=4;spacingRight=4;overflow=hidden;points=[[0,0.5],[1,0.5]];portConstraint=eastwest;rotatable=0;whiteSpace=wrap;html=1;" parent="jf0z8NG1vs1mf_S_j24v-13" vertex="1">
          <mxGeometry y="90" width="180" height="30" as="geometry" />
        </mxCell>
        <mxCell id="jf0z8NG1vs1mf_S_j24v-21" value="+To:User" style="text;strokeColor=none;fillColor=none;align=left;verticalAlign=middle;spacingLeft=4;spacingRight=4;overflow=hidden;points=[[0,0.5],[1,0.5]];portConstraint=eastwest;rotatable=0;whiteSpace=wrap;html=1;" parent="jf0z8NG1vs1mf_S_j24v-13" vertex="1">
          <mxGeometry y="120" width="180" height="30" as="geometry" />
        </mxCell>
        <mxCell id="jf0z8NG1vs1mf_S_j24v-14" value="+Content:String" style="text;strokeColor=none;fillColor=none;align=left;verticalAlign=middle;spacingLeft=4;spacingRight=4;overflow=hidden;points=[[0,0.5],[1,0.5]];portConstraint=eastwest;rotatable=0;whiteSpace=wrap;html=1;" parent="jf0z8NG1vs1mf_S_j24v-13" vertex="1">
          <mxGeometry y="150" width="180" height="30" as="geometry" />
        </mxCell>
        <mxCell id="jf0z8NG1vs1mf_S_j24v-16" value="+Timestamp:DateTime" style="text;strokeColor=none;fillColor=none;align=left;verticalAlign=middle;spacingLeft=4;spacingRight=4;overflow=hidden;points=[[0,0.5],[1,0.5]];portConstraint=eastwest;rotatable=0;whiteSpace=wrap;html=1;" parent="jf0z8NG1vs1mf_S_j24v-13" vertex="1">
          <mxGeometry y="180" width="180" height="30" as="geometry" />
        </mxCell>
        <mxCell id="Trp3Tn5dPviKlCJHLu38-35" value="-Received()" style="text;strokeColor=none;fillColor=none;align=left;verticalAlign=middle;spacingLeft=4;spacingRight=4;overflow=hidden;points=[[0,0.5],[1,0.5]];portConstraint=eastwest;rotatable=0;whiteSpace=wrap;html=1;" parent="jf0z8NG1vs1mf_S_j24v-13" vertex="1">
          <mxGeometry y="210" width="180" height="30" as="geometry" />
        </mxCell>
        <mxCell id="Trp3Tn5dPviKlCJHLu38-36" value="-Send()" style="text;strokeColor=none;fillColor=none;align=left;verticalAlign=middle;spacingLeft=4;spacingRight=4;overflow=hidden;points=[[0,0.5],[1,0.5]];portConstraint=eastwest;rotatable=0;whiteSpace=wrap;html=1;" parent="jf0z8NG1vs1mf_S_j24v-13" vertex="1">
          <mxGeometry y="240" width="180" height="30" as="geometry" />
        </mxCell>
        <mxCell id="Trp3Tn5dPviKlCJHLu38-40" value="-Delete()" style="text;strokeColor=none;fillColor=none;align=left;verticalAlign=middle;spacingLeft=4;spacingRight=4;overflow=hidden;points=[[0,0.5],[1,0.5]];portConstraint=eastwest;rotatable=0;whiteSpace=wrap;html=1;" parent="jf0z8NG1vs1mf_S_j24v-13" vertex="1">
          <mxGeometry y="270" width="180" height="30" as="geometry" />
        </mxCell>
        <mxCell id="Trp3Tn5dPviKlCJHLu38-43" value="" style="endArrow=none;html=1;rounded=0;exitX=0.011;exitY=0.033;exitDx=0;exitDy=0;exitPerimeter=0;entryX=1.006;entryY=0.033;entryDx=0;entryDy=0;entryPerimeter=0;" parent="jf0z8NG1vs1mf_S_j24v-13" source="Trp3Tn5dPviKlCJHLu38-35" target="Trp3Tn5dPviKlCJHLu38-35" edge="1">
          <mxGeometry width="50" height="50" relative="1" as="geometry">
            <mxPoint x="-16" y="210" as="sourcePoint" />
            <mxPoint x="34" y="160" as="targetPoint" />
          </mxGeometry>
        </mxCell>
        <mxCell id="jf0z8NG1vs1mf_S_j24v-22" value="ChatRoom" style="swimlane;fontStyle=0;childLayout=stackLayout;horizontal=1;startSize=30;horizontalStack=0;resizeParent=1;resizeParentMax=0;resizeLast=0;collapsible=1;marginBottom=0;whiteSpace=wrap;html=1;" parent="1" vertex="1">
          <mxGeometry x="285" y="1315" width="140" height="270" as="geometry" />
        </mxCell>
        <mxCell id="jf0z8NG1vs1mf_S_j24v-23" value="+ID:Interger{id}" style="text;strokeColor=none;fillColor=none;align=left;verticalAlign=middle;spacingLeft=4;spacingRight=4;overflow=hidden;points=[[0,0.5],[1,0.5]];portConstraint=eastwest;rotatable=0;whiteSpace=wrap;html=1;" parent="jf0z8NG1vs1mf_S_j24v-22" vertex="1">
          <mxGeometry y="30" width="140" height="30" as="geometry" />
        </mxCell>
        <mxCell id="Trp3Tn5dPviKlCJHLu38-3" value="+Members:String" style="text;strokeColor=none;fillColor=none;align=left;verticalAlign=middle;spacingLeft=4;spacingRight=4;overflow=hidden;points=[[0,0.5],[1,0.5]];portConstraint=eastwest;rotatable=0;whiteSpace=wrap;html=1;" parent="jf0z8NG1vs1mf_S_j24v-22" vertex="1">
          <mxGeometry y="60" width="140" height="30" as="geometry" />
        </mxCell>
        <mxCell id="jf0z8NG1vs1mf_S_j24v-24" value="+IsActive:Boolean" style="text;strokeColor=none;fillColor=none;align=left;verticalAlign=middle;spacingLeft=4;spacingRight=4;overflow=hidden;points=[[0,0.5],[1,0.5]];portConstraint=eastwest;rotatable=0;whiteSpace=wrap;html=1;" parent="jf0z8NG1vs1mf_S_j24v-22" vertex="1">
          <mxGeometry y="90" width="140" height="30" as="geometry" />
        </mxCell>
        <mxCell id="Trp3Tn5dPviKlCJHLu38-46" value="" style="endArrow=none;html=1;rounded=0;exitX=1.007;exitY=1.167;exitDx=0;exitDy=0;exitPerimeter=0;" parent="jf0z8NG1vs1mf_S_j24v-22" edge="1" source="jf0z8NG1vs1mf_S_j24v-25">
          <mxGeometry width="50" height="50" relative="1" as="geometry">
            <mxPoint x="-57.5" y="120" as="sourcePoint" />
            <mxPoint x="-5" y="185" as="targetPoint" />
          </mxGeometry>
        </mxCell>
        <mxCell id="p6NRK59MVq9YujgwilfF-11" value="+Messages:Messages[*]" style="text;strokeColor=none;fillColor=none;align=left;verticalAlign=middle;spacingLeft=4;spacingRight=4;overflow=hidden;points=[[0,0.5],[1,0.5]];portConstraint=eastwest;rotatable=0;whiteSpace=wrap;html=1;" vertex="1" parent="jf0z8NG1vs1mf_S_j24v-22">
          <mxGeometry y="120" width="140" height="30" as="geometry" />
        </mxCell>
        <mxCell id="jf0z8NG1vs1mf_S_j24v-25" value="+Messages:Messages[*]" style="text;strokeColor=none;fillColor=none;align=left;verticalAlign=middle;spacingLeft=4;spacingRight=4;overflow=hidden;points=[[0,0.5],[1,0.5]];portConstraint=eastwest;rotatable=0;whiteSpace=wrap;html=1;" parent="jf0z8NG1vs1mf_S_j24v-22" vertex="1">
          <mxGeometry y="150" width="140" height="30" as="geometry" />
        </mxCell>
        <mxCell id="jf0z8NG1vs1mf_S_j24v-35" value="-SendRequest()" style="text;strokeColor=none;fillColor=none;align=left;verticalAlign=middle;spacingLeft=4;spacingRight=4;overflow=hidden;points=[[0,0.5],[1,0.5]];portConstraint=eastwest;rotatable=0;whiteSpace=wrap;html=1;" parent="jf0z8NG1vs1mf_S_j24v-22" vertex="1">
          <mxGeometry y="180" width="140" height="30" as="geometry" />
        </mxCell>
        <mxCell id="jf0z8NG1vs1mf_S_j24v-36" value="-CreateRoom()" style="text;strokeColor=none;fillColor=none;align=left;verticalAlign=middle;spacingLeft=4;spacingRight=4;overflow=hidden;points=[[0,0.5],[1,0.5]];portConstraint=eastwest;rotatable=0;whiteSpace=wrap;html=1;" parent="jf0z8NG1vs1mf_S_j24v-22" vertex="1">
          <mxGeometry y="210" width="140" height="30" as="geometry" />
        </mxCell>
        <mxCell id="Trp3Tn5dPviKlCJHLu38-45" value="-SendMessage()" style="text;strokeColor=none;fillColor=none;align=left;verticalAlign=middle;spacingLeft=4;spacingRight=4;overflow=hidden;points=[[0,0.5],[1,0.5]];portConstraint=eastwest;rotatable=0;whiteSpace=wrap;html=1;" parent="jf0z8NG1vs1mf_S_j24v-22" vertex="1">
          <mxGeometry y="240" width="140" height="30" as="geometry" />
        </mxCell>
        <mxCell id="jf0z8NG1vs1mf_S_j24v-43" value="" style="rhombus;blackSpace=wrap;html=1;shadow=1;rounded=0;arcSize=50;strokeColor=#000033;fillColor=#000000;" parent="1" vertex="1">
          <mxGeometry x="25" y="867.5" width="35" height="22.5" as="geometry" />
        </mxCell>
        <mxCell id="jf0z8NG1vs1mf_S_j24v-48" value="" style="rhombus;whiteSpace=wrap;html=1;shadow=1;rounded=0;arcSize=50;direction=south;fillColor=#030303;" parent="1" vertex="1">
          <mxGeometry x="353.5" y="1120" width="22.5" height="35" as="geometry" />
        </mxCell>
        <mxCell id="jf0z8NG1vs1mf_S_j24v-49" value="" style="rhombus;whiteSpace=wrap;html=1;shadow=1;rounded=0;arcSize=50;fillColor=#030303;" parent="1" vertex="1">
          <mxGeometry x="25" y="930" width="35" height="22.5" as="geometry" />
        </mxCell>
        <mxCell id="jf0z8NG1vs1mf_S_j24v-58" value="" style="endArrow=none;html=1;rounded=0;entryX=1;entryY=0.283;entryDx=0;entryDy=0;entryPerimeter=0;exitX=1;exitY=0.5;exitDx=0;exitDy=0;" parent="1" source="jf0z8NG1vs1mf_S_j24v-43" edge="1">
          <mxGeometry width="50" height="50" relative="1" as="geometry">
            <mxPoint x="55" y="877.63" as="sourcePoint" />
            <mxPoint x="271" y="879.8699999999998" as="targetPoint" />
          </mxGeometry>
        </mxCell>
        <mxCell id="jf0z8NG1vs1mf_S_j24v-60" value="&lt;b&gt;1&lt;/b&gt;" style="text;html=1;align=center;verticalAlign=middle;resizable=0;points=[];autosize=1;strokeColor=none;fillColor=none;" parent="1" vertex="1">
          <mxGeometry x="45" y="841.25" width="30" height="30" as="geometry" />
        </mxCell>
        <mxCell id="jf0z8NG1vs1mf_S_j24v-61" value="&lt;b&gt;&lt;font style=&quot;font-size: 20px;&quot;&gt;*&lt;/font&gt;&lt;/b&gt;" style="text;html=1;align=center;verticalAlign=middle;resizable=0;points=[];autosize=1;strokeColor=none;fillColor=none;" parent="1" vertex="1">
          <mxGeometry x="228" y="848" width="30" height="40" as="geometry" />
        </mxCell>
        <mxCell id="jf0z8NG1vs1mf_S_j24v-62" value="-sendMessage" style="text;html=1;align=center;verticalAlign=middle;resizable=0;points=[];autosize=1;strokeColor=none;fillColor=none;" parent="1" vertex="1">
          <mxGeometry x="176" y="872.5" width="100" height="30" as="geometry" />
        </mxCell>
        <mxCell id="jf0z8NG1vs1mf_S_j24v-63" value="" style="endArrow=none;html=1;rounded=0;exitX=1;exitY=0.5;exitDx=0;exitDy=0;entryX=1.016;entryY=0.108;entryDx=0;entryDy=0;entryPerimeter=0;" parent="1" source="jf0z8NG1vs1mf_S_j24v-49" target="jf0z8NG1vs1mf_S_j24v-66" edge="1">
          <mxGeometry width="50" height="50" relative="1" as="geometry">
            <mxPoint x="150" y="1005" as="sourcePoint" />
            <mxPoint x="200" y="955" as="targetPoint" />
          </mxGeometry>
        </mxCell>
        <mxCell id="jf0z8NG1vs1mf_S_j24v-64" value="&lt;b&gt;1&lt;/b&gt;" style="text;html=1;align=center;verticalAlign=middle;resizable=0;points=[];autosize=1;strokeColor=none;fillColor=none;" parent="1" vertex="1">
          <mxGeometry x="43" y="915" width="30" height="30" as="geometry" />
        </mxCell>
        <mxCell id="jf0z8NG1vs1mf_S_j24v-65" value="&lt;font size=&quot;1&quot; style=&quot;&quot;&gt;&lt;b style=&quot;font-size: 20px;&quot;&gt;*&lt;/b&gt;&lt;/font&gt;" style="text;html=1;align=center;verticalAlign=middle;resizable=0;points=[];autosize=1;strokeColor=none;fillColor=none;" parent="1" vertex="1">
          <mxGeometry x="228" y="913" width="30" height="40" as="geometry" />
        </mxCell>
        <mxCell id="jf0z8NG1vs1mf_S_j24v-66" value="-ReceivedMessage" style="text;html=1;align=center;verticalAlign=middle;resizable=0;points=[];autosize=1;strokeColor=none;fillColor=none;" parent="1" vertex="1">
          <mxGeometry x="143" y="938" width="125" height="30" as="geometry" />
        </mxCell>
        <mxCell id="jf0z8NG1vs1mf_S_j24v-68" value="" style="endArrow=none;html=1;rounded=0;entryX=1;entryY=0.5;entryDx=0;entryDy=0;exitX=0.571;exitY=0.006;exitDx=0;exitDy=0;exitPerimeter=0;" parent="1" source="jf0z8NG1vs1mf_S_j24v-22" target="jf0z8NG1vs1mf_S_j24v-48" edge="1">
          <mxGeometry width="50" height="50" relative="1" as="geometry">
            <mxPoint x="371" y="1125" as="sourcePoint" />
            <mxPoint x="150" y="1055" as="targetPoint" />
          </mxGeometry>
        </mxCell>
        <mxCell id="jf0z8NG1vs1mf_S_j24v-70" value="&lt;b&gt;&lt;font style=&quot;font-size: 20px;&quot;&gt;*&lt;/font&gt;&lt;/b&gt;" style="text;html=1;align=center;verticalAlign=middle;resizable=0;points=[];autosize=1;strokeColor=none;fillColor=none;" parent="1" vertex="1">
          <mxGeometry x="360" y="1240" width="30" height="40" as="geometry" />
        </mxCell>
        <mxCell id="jf0z8NG1vs1mf_S_j24v-93" value="+ChatRoom" style="text;html=1;align=center;verticalAlign=middle;resizable=0;points=[];autosize=1;strokeColor=none;fillColor=none;" parent="1" vertex="1">
          <mxGeometry x="291" y="1250" width="85" height="30" as="geometry" />
        </mxCell>
        <mxCell id="jf0z8NG1vs1mf_S_j24v-94" value="" style="endArrow=none;dashed=1;html=1;dashPattern=1 3;strokeWidth=2;rounded=0;" parent="1" edge="1">
          <mxGeometry width="50" height="50" relative="1" as="geometry">
            <mxPoint x="-478" y="1640" as="sourcePoint" />
            <mxPoint x="1119" y="1640" as="targetPoint" />
          </mxGeometry>
        </mxCell>
        <mxCell id="jf0z8NG1vs1mf_S_j24v-96" value="Class diagram" style="text;html=1;align=center;verticalAlign=middle;resizable=0;points=[];autosize=1;strokeColor=none;fillColor=none;" parent="1" vertex="1">
          <mxGeometry x="200" y="1610" width="100" height="30" as="geometry" />
        </mxCell>
        <mxCell id="jf0z8NG1vs1mf_S_j24v-97" value="&lt;font style=&quot;font-size: 20px;&quot;&gt;&lt;u&gt;Actors&lt;/u&gt;&lt;br&gt;&lt;/font&gt;&lt;ul style=&quot;font-size: 20px;&quot;&gt;&lt;li style=&quot;text-align: left;&quot;&gt;&lt;span style=&quot;background-color: initial;&quot;&gt;&lt;font style=&quot;font-size: 20px;&quot;&gt;Students&lt;/font&gt;&lt;/span&gt;&lt;/li&gt;&lt;li style=&quot;text-align: left;&quot;&gt;&lt;font style=&quot;font-size: 20px;&quot;&gt;Administrator&lt;/font&gt;&lt;/li&gt;&lt;/ul&gt;" style="text;html=1;align=center;verticalAlign=middle;resizable=0;points=[];autosize=1;strokeColor=none;fillColor=none;" parent="1" vertex="1">
          <mxGeometry x="130" y="-1560" width="180" height="130" as="geometry" />
        </mxCell>
        <mxCell id="jf0z8NG1vs1mf_S_j24v-98" value="&lt;font style=&quot;font-size: 20px;&quot;&gt;&lt;u&gt;Use cases&lt;/u&gt;&lt;br&gt;&lt;/font&gt;&lt;ul style=&quot;font-size: 20px;&quot;&gt;&lt;li style=&quot;text-align: left;&quot;&gt;Sign up&lt;/li&gt;&lt;li style=&quot;text-align: left;&quot;&gt;&lt;font style=&quot;font-size: 20px;&quot;&gt;Sign in&lt;/font&gt;&lt;/li&gt;&lt;li style=&quot;text-align: left;&quot;&gt;Validate user&lt;/li&gt;&lt;li style=&quot;text-align: left;&quot;&gt;&lt;font style=&quot;font-size: 20px;&quot;&gt;Search other user&lt;/font&gt;&lt;/li&gt;&lt;li style=&quot;text-align: left;&quot;&gt;&lt;font style=&quot;font-size: 20px;&quot;&gt;Send request&lt;/font&gt;&lt;/li&gt;&lt;li style=&quot;text-align: left;&quot;&gt;Ignore/Accept&lt;/li&gt;&lt;li style=&quot;text-align: left;&quot;&gt;&lt;font style=&quot;font-size: 20px;&quot;&gt;Chat&lt;/font&gt;&lt;/li&gt;&lt;li style=&quot;text-align: left;&quot;&gt;&lt;font style=&quot;font-size: 20px;&quot;&gt;view conversation&lt;/font&gt;&lt;/li&gt;&lt;li style=&quot;text-align: left;&quot;&gt;&lt;font style=&quot;font-size: 20px;&quot;&gt;Delete conversation&lt;/font&gt;&lt;/li&gt;&lt;li style=&quot;text-align: left;&quot;&gt;&lt;font style=&quot;font-size: 20px;&quot;&gt;logout&lt;/font&gt;&lt;/li&gt;&lt;/ul&gt;" style="text;html=1;align=center;verticalAlign=middle;resizable=0;points=[];autosize=1;strokeColor=none;fillColor=none;" parent="1" vertex="1">
          <mxGeometry x="118" y="-1450" width="240" height="320" as="geometry" />
        </mxCell>
        <mxCell id="Trp3Tn5dPviKlCJHLu38-12" value="Student" style="swimlane;fontStyle=0;childLayout=stackLayout;horizontal=1;startSize=30;horizontalStack=0;resizeParent=1;resizeParentMax=0;resizeLast=0;collapsible=1;marginBottom=0;whiteSpace=wrap;html=1;" parent="1" vertex="1">
          <mxGeometry x="-240" y="1260" width="140" height="215" as="geometry" />
        </mxCell>
        <mxCell id="Trp3Tn5dPviKlCJHLu38-13" value="StudentID" style="text;strokeColor=none;fillColor=none;align=left;verticalAlign=middle;spacingLeft=4;spacingRight=4;overflow=hidden;points=[[0,0.5],[1,0.5]];portConstraint=eastwest;rotatable=0;whiteSpace=wrap;html=1;" parent="Trp3Tn5dPviKlCJHLu38-12" vertex="1">
          <mxGeometry y="30" width="140" height="30" as="geometry" />
        </mxCell>
        <mxCell id="Trp3Tn5dPviKlCJHLu38-14" value="+FirstName: String" style="text;strokeColor=none;fillColor=none;align=left;verticalAlign=middle;spacingLeft=4;spacingRight=4;overflow=hidden;points=[[0,0.5],[1,0.5]];portConstraint=eastwest;rotatable=0;whiteSpace=wrap;html=1;" parent="Trp3Tn5dPviKlCJHLu38-12" vertex="1">
          <mxGeometry y="60" width="140" height="30" as="geometry" />
        </mxCell>
        <mxCell id="Trp3Tn5dPviKlCJHLu38-29" value="+LastName: String" style="text;strokeColor=none;fillColor=none;align=left;verticalAlign=middle;spacingLeft=4;spacingRight=4;overflow=hidden;points=[[0,0.5],[1,0.5]];portConstraint=eastwest;rotatable=0;whiteSpace=wrap;html=1;" parent="Trp3Tn5dPviKlCJHLu38-12" vertex="1">
          <mxGeometry y="90" width="140" height="30" as="geometry" />
        </mxCell>
        <mxCell id="Trp3Tn5dPviKlCJHLu38-25" value="+Email: String" style="text;strokeColor=none;fillColor=none;align=left;verticalAlign=middle;spacingLeft=4;spacingRight=4;overflow=hidden;points=[[0,0.5],[1,0.5]];portConstraint=eastwest;rotatable=0;whiteSpace=wrap;html=1;" parent="Trp3Tn5dPviKlCJHLu38-12" vertex="1">
          <mxGeometry y="120" width="140" height="30" as="geometry" />
        </mxCell>
        <mxCell id="Trp3Tn5dPviKlCJHLu38-26" value="+Password:String" style="text;strokeColor=none;fillColor=none;align=left;verticalAlign=middle;spacingLeft=4;spacingRight=4;overflow=hidden;points=[[0,0.5],[1,0.5]];portConstraint=eastwest;rotatable=0;whiteSpace=wrap;html=1;" parent="Trp3Tn5dPviKlCJHLu38-12" vertex="1">
          <mxGeometry y="150" width="140" height="40" as="geometry" />
        </mxCell>
        <mxCell id="jf0z8NG1vs1mf_S_j24v-20" value="+About:String" style="text;strokeColor=none;fillColor=none;align=left;verticalAlign=middle;spacingLeft=4;spacingRight=4;overflow=hidden;points=[[0,0.5],[1,0.5]];portConstraint=eastwest;rotatable=1;whiteSpace=wrap;html=1;movable=1;resizable=1;deletable=1;editable=1;locked=0;connectable=1;" parent="Trp3Tn5dPviKlCJHLu38-12" vertex="1">
          <mxGeometry y="190" width="140" height="25" as="geometry" />
        </mxCell>
        <mxCell id="Trp3Tn5dPviKlCJHLu38-16" value="Administrator" style="swimlane;fontStyle=0;childLayout=stackLayout;horizontal=1;startSize=30;horizontalStack=0;resizeParent=1;resizeParentMax=0;resizeLast=0;collapsible=1;marginBottom=0;whiteSpace=wrap;html=1;" parent="1" vertex="1">
          <mxGeometry x="-5" y="1305" width="140" height="220" as="geometry" />
        </mxCell>
        <mxCell id="Trp3Tn5dPviKlCJHLu38-17" value="AdminID" style="text;strokeColor=none;fillColor=none;align=left;verticalAlign=middle;spacingLeft=4;spacingRight=4;overflow=hidden;points=[[0,0.5],[1,0.5]];portConstraint=eastwest;rotatable=0;whiteSpace=wrap;html=1;" parent="Trp3Tn5dPviKlCJHLu38-16" vertex="1">
          <mxGeometry y="30" width="140" height="30" as="geometry" />
        </mxCell>
        <mxCell id="Trp3Tn5dPviKlCJHLu38-28" value="+FirstName: String" style="text;strokeColor=none;fillColor=none;align=left;verticalAlign=middle;spacingLeft=4;spacingRight=4;overflow=hidden;points=[[0,0.5],[1,0.5]];portConstraint=eastwest;rotatable=0;whiteSpace=wrap;html=1;" parent="Trp3Tn5dPviKlCJHLu38-16" vertex="1">
          <mxGeometry y="60" width="140" height="30" as="geometry" />
        </mxCell>
        <mxCell id="Trp3Tn5dPviKlCJHLu38-15" value="+LastName: String" style="text;strokeColor=none;fillColor=none;align=left;verticalAlign=middle;spacingLeft=4;spacingRight=4;overflow=hidden;points=[[0,0.5],[1,0.5]];portConstraint=eastwest;rotatable=0;whiteSpace=wrap;html=1;" parent="Trp3Tn5dPviKlCJHLu38-16" vertex="1">
          <mxGeometry y="90" width="140" height="30" as="geometry" />
        </mxCell>
        <mxCell id="Trp3Tn5dPviKlCJHLu38-30" value="+Email: String" style="text;strokeColor=none;fillColor=none;align=left;verticalAlign=middle;spacingLeft=4;spacingRight=4;overflow=hidden;points=[[0,0.5],[1,0.5]];portConstraint=eastwest;rotatable=0;whiteSpace=wrap;html=1;" parent="Trp3Tn5dPviKlCJHLu38-16" vertex="1">
          <mxGeometry y="120" width="140" height="30" as="geometry" />
        </mxCell>
        <mxCell id="Trp3Tn5dPviKlCJHLu38-31" value="+Password:String" style="text;strokeColor=none;fillColor=none;align=left;verticalAlign=middle;spacingLeft=4;spacingRight=4;overflow=hidden;points=[[0,0.5],[1,0.5]];portConstraint=eastwest;rotatable=0;whiteSpace=wrap;html=1;" parent="Trp3Tn5dPviKlCJHLu38-16" vertex="1">
          <mxGeometry y="150" width="140" height="40" as="geometry" />
        </mxCell>
        <mxCell id="Trp3Tn5dPviKlCJHLu38-18" value="+Category;String" style="text;strokeColor=none;fillColor=none;align=left;verticalAlign=middle;spacingLeft=4;spacingRight=4;overflow=hidden;points=[[0,0.5],[1,0.5]];portConstraint=eastwest;rotatable=0;whiteSpace=wrap;html=1;" parent="Trp3Tn5dPviKlCJHLu38-16" vertex="1">
          <mxGeometry y="190" width="140" height="30" as="geometry" />
        </mxCell>
        <mxCell id="Trp3Tn5dPviKlCJHLu38-20" value="" style="endArrow=none;html=1;rounded=0;exitX=0.5;exitY=0;exitDx=0;exitDy=0;entryX=0.5;entryY=1;entryDx=0;entryDy=0;" parent="1" source="Trp3Tn5dPviKlCJHLu38-12" target="Trp3Tn5dPviKlCJHLu38-22" edge="1">
          <mxGeometry width="50" height="50" relative="1" as="geometry">
            <mxPoint x="-180" y="1300" as="sourcePoint" />
            <mxPoint x="-110" y="1165" as="targetPoint" />
          </mxGeometry>
        </mxCell>
        <mxCell id="Trp3Tn5dPviKlCJHLu38-21" value="" style="endArrow=none;html=1;rounded=0;exitX=0.536;exitY=0;exitDx=0;exitDy=0;exitPerimeter=0;entryX=0.5;entryY=1;entryDx=0;entryDy=0;" parent="1" source="Trp3Tn5dPviKlCJHLu38-16" target="Trp3Tn5dPviKlCJHLu38-24" edge="1">
          <mxGeometry width="50" height="50" relative="1" as="geometry">
            <mxPoint x="95" y="1300" as="sourcePoint" />
            <mxPoint x="-15" y="1120" as="targetPoint" />
          </mxGeometry>
        </mxCell>
        <mxCell id="Trp3Tn5dPviKlCJHLu38-22" value="" style="triangle;whiteSpace=wrap;html=1;direction=south;rotation=-30;" parent="1" vertex="1">
          <mxGeometry x="-105" y="1075" width="25" height="17" as="geometry" />
        </mxCell>
        <mxCell id="Trp3Tn5dPviKlCJHLu38-24" value="" style="triangle;whiteSpace=wrap;html=1;direction=north;rotation=90;" parent="1" vertex="1">
          <mxGeometry x="-40" y="1073" width="25" height="17" as="geometry" />
        </mxCell>
        <mxCell id="Trp3Tn5dPviKlCJHLu38-39" value="&lt;b&gt;1&lt;/b&gt;" style="text;html=1;align=center;verticalAlign=middle;resizable=0;points=[];autosize=1;strokeColor=none;fillColor=none;" parent="1" vertex="1">
          <mxGeometry x="340" y="1145" width="30" height="30" as="geometry" />
        </mxCell>
        <mxCell id="jf0z8NG1vs1mf_S_j24v-92" value="+Message" style="text;html=1;align=center;verticalAlign=middle;resizable=0;points=[];autosize=1;strokeColor=none;fillColor=none;" parent="1" vertex="1">
          <mxGeometry x="215" y="1170" width="180" height="30" as="geometry" />
        </mxCell>
      </root>
    </mxGraphModel>
  </diagram>
</mxfile>
